<svg xmlns="http://www.w3.org/2000/svg" preserveAspectRatio="xMidYMid" width="52" height="48"><path d="M51.241 25.583h-3.44a.766.766 0 0 1-.759-.774c0-.427.339-.774.759-.774h3.44c.419 0 .759.347.759.774 0 .428-.34.774-.759.774zm-24.41 22a1.034 1.034 0 0 1-1.662-.001l-4.577-6.054a.785.785 0 0 1 .137-1.086.748.748 0 0 1 1.065.14l2.646 3.501-4.999-20.226H9.152l9.713 12.85a.786.786 0 0 1-.137 1.087.751.751 0 0 1-1.065-.141L7.135 23.725a1.086 1.086 0 0 1-.075-1.195l6.029-10.542c.187-.328.535-.531.907-.531h24.008c.372 0 .72.204.907.531l2.002 3.5a.784.784 0 0 1-.273 1.06.752.752 0 0 1-1.038-.279l-1.431-2.502-4.885 8.541h9.77l-1.032-1.804a.783.783 0 0 1 .273-1.059.75.75 0 0 1 1.038.278l1.605 2.807c.217.379.187.847-.075 1.195L26.831 47.583zM26 44.06l4.994-20.203h-9.988L26 44.06zM13.829 13.767l-4.885 8.541h9.77l-4.885-8.541zm1.321-.762l4.867 8.509 4.686-8.509H15.15zm6.171 9.303h9.357L26 13.812l-4.679 8.496zm15.529-9.303h-9.553l4.686 8.509 4.867-8.509zm-4.291 10.852L27.56 44.083l15.288-20.226H32.559zm9.393-14.23a.748.748 0 0 1-1.073 0 .784.784 0 0 1 0-1.095l2.432-2.483a.75.75 0 0 1 1.074 0 .787.787 0 0 1 0 1.096l-2.433 2.482zM26 5.059a.767.767 0 0 1-.759-.774V.774c0-.427.34-.774.759-.774s.759.347.759.774v3.511c0 .427-.34.774-.759.774zM10.585 9.853a.748.748 0 0 1-.537-.226L7.615 7.145a.787.787 0 0 1 0-1.096.749.749 0 0 1 1.073 0l2.433 2.483a.784.784 0 0 1 0 1.095.748.748 0 0 1-.536.226zm-6.386 15.73H.759A.766.766 0 0 1 0 24.809c0-.427.34-.774.759-.774h3.44c.419 0 .759.347.759.774 0 .428-.34.774-.759.774z" fill="#fff" fill-rule="evenodd"/></svg>