<svg xmlns="http://www.w3.org/2000/svg" preserveAspectRatio="xMidYMid" width="168" height="51"><path d="M152.032 2.491c7.449 0 13.488 6.068 13.488 13.554 0 7.485-6.039 13.554-13.488 13.554-7.45 0-13.489-6.069-13.489-13.554 0-7.486 6.039-13.554 13.489-13.554m-34.16 0c7.45 0 13.489 6.068 13.489 13.554 0 7.485-6.039 13.554-13.489 13.554-7.449 0-13.489-6.069-13.489-13.554 0-7.486 6.04-13.554 13.489-13.554zm-101.904 0c7.449 0 13.489 6.068 13.489 13.554 0 7.485-6.04 13.554-13.489 13.554-7.45 0-13.489-6.069-13.489-13.554 0-7.486 6.039-13.554 13.489-13.554zm0-2.492c8.819 0 15.968 7.184 15.968 16.046 0 8.861-7.149 16.045-15.968 16.045C7.149 32.09 0 24.906 0 16.045 0 7.183 7.149-.001 15.968-.001zM61.02 14.746c1.017 0 3.06.093 3.883.645.828.555 1.077 1.279 1.084 1.951.028 8.104-8.189 14.748-15.912 14.748-7.501 0-13.792-5.197-15.505-12.203l2.584.062c1.649 5.615 7.017 9.65 12.921 9.65 5.904 0 10.551-3.536 12.534-8.54.429-1.869.931-3.72-1.586-3.717H39.127s-2.865.056-3.873-.621c-.838-.562-1.133-1.306-1.084-1.975.68-8.337 7.567-14.747 15.905-14.747 7.479 0 13.755 5.167 15.491 12.14h-2.572c-1.669-5.581-6.821-9.648-12.919-9.648-5.661 0-10.507 3.505-12.507 8.472-.687 1.724-.954 3.756 1.559 3.783H61.02zM84.182-.001c7.49 0 13.774 5.182 15.498 12.172h-2.569c-1.658-5.598-6.819-9.68-12.929-9.68-7.449 0-13.488 6.068-13.488 13.554 0 7.485 6.039 13.554 13.488 13.554 6.11 0 11.271-4.083 12.929-9.681h2.569c-1.724 6.99-8.008 12.172-15.498 12.172-8.818 0-15.967-7.184-15.967-16.045 0-8.862 7.149-16.046 15.967-16.046zm33.69 0c8.819 0 15.968 7.184 15.968 16.046v16.041h-2.479v-7.452c-2.832 4.481-7.814 7.456-13.489 7.456-8.818 0-15.967-7.184-15.967-16.045 0-8.862 7.149-16.046 15.967-16.046zm12.716 46.946h5.377c.376 0 .694-.13.954-.391.26-.264.39-.584.39-.962V44.24c0-.378-.13-.697-.39-.961a1.295 1.295 0 0 0-.954-.392h-5.377v4.058zm-26.457 1.347v-6.756h1.347v6.756c0 .376.13.698.389.96.261.261.579.391.955.391h4.032c.377 0 .695-.13.955-.391.26-.262.39-.584.39-.96v-6.756h1.347v6.756c0 .36-.07.703-.206 1.029-.139.325-.33.61-.572.858a2.849 2.849 0 0 1-.856.592 2.503 2.503 0 0 1-1.058.226h-4.032a2.62 2.62 0 0 1-1.026-.207 2.771 2.771 0 0 1-.861-.575 2.77 2.77 0 0 1-.587-.86 2.599 2.599 0 0 1-.217-1.063zm-23.627-.002c0 .378.13.698.39.962.262.261.58.391.957.391h4.029c.377 0 .695-.13.957-.391.26-.264.39-.584.39-.962v-4.05c0-.378-.13-.697-.39-.961a1.304 1.304 0 0 0-.957-.392h-4.029c-.377 0-.695.131-.957.392-.26.264-.39.583-.39.961v4.05zm-1.347.002v-4.054c0-.369.072-.718.213-1.044.143-.329.336-.615.578-.859a2.79 2.79 0 0 1 .858-.583 2.514 2.514 0 0 1 1.043-.218h4.033c.359 0 .7.071 1.02.218.323.144.608.34.854.583.249.244.446.53.594.859.15.326.224.675.224 1.044v4.054c0 .369-.072.718-.217 1.047a2.744 2.744 0 0 1-1.435 1.439 2.494 2.494 0 0 1-1.04.219h-4.033c-.377 0-.729-.07-1.056-.207a2.69 2.69 0 0 1-.858-.575 2.7 2.7 0 0 1-.778-1.923zm-23.493-1.347h5.377c.376 0 .694-.13.954-.391.26-.264.39-.584.39-.962V44.24c0-.378-.13-.697-.39-.961a1.295 1.295 0 0 0-.954-.392h-5.377v4.058zm-1.347 4.052v-9.463h6.724c.349 0 .688.069 1.017.211.327.14.614.332.861.575a2.8 2.8 0 0 1 .589.858c.15.329.224.684.224 1.062v1.352a2.605 2.605 0 0 1-.52 1.567 2.972 2.972 0 0 1-.589.602 2.624 2.624 0 0 1-.762.398l1.871 1.881v.957h-.952l-2.692-2.705h-4.424v2.705h-1.347zm-24.974-2.705v-4.054c0-.36.07-.702.207-1.024a2.793 2.793 0 0 1 1.429-1.455c.328-.151.68-.225 1.056-.225h4.034c.359 0 .699.069 1.02.211a2.768 2.768 0 0 1 1.432 1.431c.145.331.226.684.24 1.062h-1.347c0-.378-.13-.698-.39-.959a1.305 1.305 0 0 0-.957-.392h-4.03c-.376 0-.695.131-.957.392-.26.264-.39.583-.39.961v4.05c0 .378.13.698.39.962.262.261.581.391.957.391h4.03c.376 0 .695-.13.957-.391.26-.262.39-.584.39-.96v-1.347h-4.037v-1.353h5.384v2.7c0 .36-.07.703-.211 1.029a2.79 2.79 0 0 1-.574.858 2.865 2.865 0 0 1-.854.592 2.478 2.478 0 0 1-1.053.226h-4.034c-.359 0-.702-.07-1.031-.207a2.78 2.78 0 0 1-.863-.575 2.75 2.75 0 0 1-.585-.862 2.663 2.663 0 0 1-.213-1.061zm99.898 2.705v-9.463h6.724c.358 0 .699.069 1.024.211.323.14.605.332.847.575.24.241.435.527.585.858.148.329.226.684.235 1.062v1.352c0 .363-.069.702-.206 1.027-.139.324-.329.61-.571.858a2.812 2.812 0 0 1-.856.594c-.33.146-.682.221-1.058.221h-5.377v2.705h-1.347zM152.032-.001C160.85-.001 168 7.183 168 16.045c0 3.983-1.446 7.627-3.837 10.433L168 30.333l-1.753 1.762-3.838-3.856a15.86 15.86 0 0 1-10.377 3.851c-5.675 0-10.657-2.975-13.489-7.456v7.452h-2.479V.003h2.479v7.452c2.832-4.481 7.814-7.456 13.489-7.456z" fill="#fff" fill-rule="evenodd"/></svg>