<svg xmlns="http://www.w3.org/2000/svg" preserveAspectRatio="xMidYMid" width="21" height="15"><path d="M19.307 15.001H1.693A1.699 1.699 0 0 1 0 13.3V1.699C0 .761.759-.002 1.693-.002h17.614A1.7 1.7 0 0 1 21 1.699V13.3a1.7 1.7 0 0 1-1.693 1.701zM.677 13.3c0 .563.456 1.02 1.016 1.02h17.614c.56 0 1.016-.457 1.016-1.02V1.699c0-.138-.029-.269-.079-.39l-6.886 6.034 3.877 3.654a.342.342 0 0 1 .015.481.337.337 0 0 1-.479.015L12.875 7.82c-.011-.011-.008-.027-.017-.038l-1.115.976a1.884 1.884 0 0 1-1.243.451c-.45 0-.901-.15-1.243-.45l-1.114-.977c-.009.011-.006.028-.017.038l-3.898 3.673a.339.339 0 0 1-.464-.496l3.878-3.654L.756 1.307c-.05.121-.079.253-.079.392V13.3zM1.693.679a.986.986 0 0 0-.472.132l8.481 7.434c.432.379 1.164.379 1.596 0L19.78.812a.98.98 0 0 0-.473-.133H1.693z" fill="#fff" fill-rule="evenodd"/></svg>