<svg xmlns="http://www.w3.org/2000/svg" preserveAspectRatio="xMidYMid" width="19.969" height="20"><path d="M18.847 6.983a.33.33 0 0 1-.235.097.334.334 0 0 1-.236-.569 3.198 3.198 0 0 0 0-4.517.333.333 0 0 1 .471-.471 3.868 3.868 0 0 1 0 5.46zm-1.402-.667a.334.334 0 0 1-.471 0 .333.333 0 0 1 0-.471c.412-.413.639-.962.639-1.546 0-.585-.227-1.134-.639-1.546a.333.333 0 1 1 .471-.472c.538.538.834 1.255.834 2.018 0 .762-.296 1.479-.834 2.017zM14.178 20H5.789a1.47 1.47 0 0 1-1.467-1.469V1.468C4.322.658 4.98 0 5.789 0h8.39c.809 0 1.467.658 1.467 1.468v17.063A1.47 1.47 0 0 1 14.178 20zm-4.194-1.001a1.333 1.333 0 1 0-.002-2.666 1.333 1.333 0 0 0 .002 2.666zM9.984 1H8.652a.332.332 0 1 0 0 .666h1.332a.333.333 0 1 0 0-.666zm1.332 0h-.333a.332.332 0 1 0 0 .666h.333a.333.333 0 1 0 0-.666zm3.664 1.666H4.988v12.667h9.992V2.666zM9.984 16.999a.667.667 0 1 1-.001 1.333A.667.667 0 0 1 9.984 17zM2.994 6.224a.332.332 0 0 1-.471 0 2.834 2.834 0 0 1-.834-2.017c0-.763.296-1.48.834-2.018a.333.333 0 0 1 .471.471 2.175 2.175 0 0 0-.639 1.547c0 .584.227 1.133.639 1.546.13.13.13.341 0 .471zm-1.402.287a.334.334 0 0 1-.236.569.33.33 0 0 1-.235-.097 3.868 3.868 0 0 1 0-5.46.333.333 0 0 1 .471.471 3.198 3.198 0 0 0 0 4.517z" fill="#fff" fill-rule="evenodd"/></svg>