<svg xmlns="http://www.w3.org/2000/svg" preserveAspectRatio="xMidYMid" width="105" height="72"><path d="M23.049 26.182c12.673 0 22.946 10.257 22.946 22.909S35.722 72 23.049 72C10.376 72 .102 61.743.102 49.091L0 45.818C0 20.513 20.547 0 45.893 0v13.09c-8.756 0-16.988 3.405-23.18 9.586a33.25 33.25 0 0 0-3.26 3.786 23.155 23.155 0 0 1 3.596-.28zm59.004 0C94.726 26.182 105 36.439 105 49.091S94.726 72 82.053 72c-12.672 0-22.946-10.257-22.946-22.909l-.102-3.273C59.005 20.513 79.552 0 104.898 0v13.09c-8.756 0-16.988 3.405-23.18 9.586a33.36 33.36 0 0 0-3.261 3.786 23.174 23.174 0 0 1 3.596-.28z" fill="#0097d6" opacity=".21" fill-rule="evenodd"/></svg>