<svg xmlns="http://www.w3.org/2000/svg" preserveAspectRatio="xMidYMid" width="18" height="18"><path d="M9.302 0C4.499 0 .605 4.029.605 9c0 4.97 3.894 8.999 8.697 8.999C14.106 17.999 18 13.97 18 9c0-4.971-3.894-9-8.698-9zm4.412 9.973c.406.41.834.795 1.198 1.248.162.199.313.406.429.639.165.331.016.695-.271.714h-1.781c-.461.04-.827-.153-1.136-.478-.246-.26-.475-.537-.712-.805a1.734 1.734 0 0 0-.321-.296c-.243-.163-.454-.113-.593.15-.142.267-.174.563-.188.86-.019.435-.146.549-.567.569-.901.044-1.756-.097-2.55-.567-.701-.415-1.243-1-1.716-1.662-.92-1.291-1.625-2.708-2.258-4.166-.143-.329-.039-.504.311-.511.582-.012 1.163-.01 1.745-.001.237.004.393.144.484.375.314.801.7 1.561 1.182 2.267.129.189.26.376.447.509.207.147.364.098.461-.141.063-.151.09-.313.103-.476a7.368 7.368 0 0 0-.028-1.666c-.05-.347-.238-.57-.572-.636-.17-.033-.146-.099-.063-.199.144-.174.278-.281.547-.281l2.013-.001c.318.065.389.212.432.543l.002 2.314c-.004.128.062.508.284.592.178.06.295-.087.401-.204.483-.53.827-1.156 1.135-1.803.136-.286.253-.581.367-.877.085-.22.217-.327.456-.324l1.938.003c.057 0 .115 0 .172.011.326.057.416.203.315.533-.159.518-.468.949-.771 1.382-.324.463-.669.911-.99 1.375-.294.426-.271.641.095 1.01z" fill="#fff" fill-rule="evenodd"/></svg>