<svg xmlns="http://www.w3.org/2000/svg" preserveAspectRatio="xMidYMid" width="18" height="18"><path fill="#fff" d="M8.981.002C4.176.002.267 4.038.267 8.999s3.909 8.998 8.714 8.998c4.805 0 8.714-4.037 8.714-8.998 0-4.961-3.909-8.997-8.714-8.997zm3.887 6.938c.004.089.006.179.006.269 0 2.737-2.017 5.892-5.707 5.892a5.544 5.544 0 0 1-3.074-.931 3.945 3.945 0 0 0 2.969-.857c-.877-.017-1.618-.616-1.873-1.439a1.963 1.963 0 0 0 .905-.035c-.917-.19-1.608-1.027-1.608-2.03v-.026c.27.155.579.248.908.259a2.09 2.09 0 0 1-.892-1.724c0-.379.099-.735.271-1.041.989 1.253 2.468 2.077 4.134 2.164a2.16 2.16 0 0 1-.051-.472c0-1.143.897-2.071 2.005-2.071.577 0 1.098.251 1.464.654a3.933 3.933 0 0 0 1.274-.503c-.15.484-.468.89-.882 1.146.406-.05.792-.161 1.152-.326-.269.415-.609.78-1.001 1.071z"/></svg>